<svg width="20" height="20" xmlns="http://www.w3.org/2000/svg"><defs><linearGradient x1="50%" y1="0%" x2="50%" y2="100%" id="a"><stop stop-color="#67FF81" offset="0%"/><stop stop-color="#01B41F" offset="100%"/></linearGradient></defs><g fill-rule="nonzero" fill="none"><path d="M13.027 0c2.008 0 3.012 0 4.092.342a4.248 4.248 0 0 1 2.54 2.539C20 3.96 20 4.965 20 6.973v6.054c0 2.008 0 3.011-.342 4.092a4.247 4.247 0 0 1-2.539 2.539C16.04 20 15.035 20 13.027 20H6.973c-2.008 0-3.012 0-4.093-.342A4.247 4.247 0 0 1 .341 17.12C0 16.038 0 15.035 0 13.027V6.973C0 4.965 0 3.96.342 2.88A4.248 4.248 0 0 1 2.88.34C3.96 0 4.965 0 6.973 0h6.054z" fill="url(#a)"/><path d="M2.667 9.583c0-3.526 3.3-6.089 7.333-6.083 4.033.006 7.333 2.557 7.333 6.083 0 3.527-3.579 6.084-7.333 6.084-.616 0-1.299-.09-1.863-.132-.564-.043-1.711 1.03-3.137.897.776-.532 1.078-1.15 1.168-1.688-2.038-1.047-3.501-2.906-3.501-5.16z" fill="#FFF"/></g></svg>