<svg width="19" height="20" xmlns="http://www.w3.org/2000/svg"><g fill-rule="nonzero" fill="#615A9E"><path d="M16.842 1.95C16.345 1.492 14.337.034 9.864.014c0 0-5.276-.318-7.848 2.042C.586 3.486.082 5.58.029 8.178c-.053 2.598-.122 7.465 4.57 8.786h.005L4.6 18.98s-.03.815.507.981c.65.202 1.03-.418 1.65-1.086.341-.366.81-.905 1.165-1.317 3.21.268 5.677-.348 5.958-.439.648-.21 4.314-.68 4.91-5.547.616-5.018-.297-8.191-1.948-9.622zm.544 9.26c-.505 4.064-3.477 4.32-4.025 4.497-.234.075-2.402.614-5.128.436 0 0-2.03 2.45-2.665 3.087-.099.1-.215.14-.293.121-.11-.026-.14-.156-.138-.345l.017-3.347c-3.969-1.103-3.737-5.246-3.692-7.415.044-2.169.452-3.946 1.663-5.142C5.3 1.132 9.781 1.426 9.781 1.426c3.784.017 5.597 1.156 6.018 1.538 1.396 1.196 2.107 4.056 1.587 8.246z"/><path d="M11.705 8.319a.253.253 0 0 1-.252-.24c-.043-.859-.448-1.28-1.273-1.324a.253.253 0 0 1 .027-.505c1.09.059 1.695.683 1.75 1.803.008.14-.1.259-.24.266h-.012z"/><path d="M13.003 8.754h-.006a.253.253 0 0 1-.247-.258c.02-.865-.227-1.565-.755-2.14-.525-.575-1.246-.888-2.204-.959a.253.253 0 0 1 .037-.504c1.078.079 1.932.456 2.54 1.12.611.667.91 1.506.887 2.494a.253.253 0 0 1-.252.247z"/><path d="M14.332 9.274a.253.253 0 0 1-.253-.251c-.011-1.547-.457-2.728-1.361-3.611-.894-.87-2.023-1.317-3.356-1.327a.253.253 0 0 1 .002-.505h.002c1.468.01 2.715.505 3.705 1.47.992.969 1.502 2.304 1.514 3.969a.253.253 0 0 1-.25.255h-.003zM10.243 11.454s.356.031.547-.206l.374-.47c.179-.232.614-.38 1.04-.144.237.134.662.397.928.593.283.208.86.69.863.691.275.232.339.574.151.934l-.002.008c-.192.34-.45.659-.776.957-.004.001-.004.003-.007.005-.268.223-.531.35-.79.381a1.046 1.046 0 0 1-.45-.045l-.008-.012c-.399-.112-1.063-.393-2.17-1.003a12.906 12.906 0 0 1-1.822-1.204 9.528 9.528 0 0 1-.82-.726l-.027-.028-.028-.028-.028-.027-.027-.028a9.49 9.49 0 0 1-.727-.82A12.867 12.867 0 0 1 5.26 8.46c-.61-1.107-.891-1.77-1.003-2.169l-.013-.008a1.04 1.04 0 0 1-.044-.451c.031-.258.158-.521.381-.789.002-.003.004-.003.005-.007.298-.326.617-.584.957-.777l.008-.002c.36-.187.702-.123.934.152.002.002.483.58.691.863.196.266.459.69.593.928.236.426.088.861-.145 1.04l-.47.374c-.236.191-.205.547-.205.547s.695 2.63 3.294 3.293z"/></g></svg>