<svg width="20" height="20" xmlns="http://www.w3.org/2000/svg"><g fill-rule="nonzero" fill="#289646"><path d="M14.6 11.934a9.312 9.312 0 0 1-.884-.371c-.256-.123-.512-.25-.774-.36a1.776 1.776 0 0 0-.06-.023c-.228-.084-.394-.125-.56.125-.166.246-.643.803-.788.969-.145.162-.29.175-.538.062-.25-.125-1.052-.388-2.002-1.238-.74-.662-1.238-1.475-1.384-1.725-.145-.25-.016-.387.109-.512.112-.113.25-.288.375-.438.122-.15.162-.25.247-.412.083-.175.042-.312-.021-.437s-.56-1.35-.768-1.838c-.2-.487-.406-.425-.56-.425-.143-.013-.31-.013-.474-.013a.94.94 0 0 0-.665.3c-.228.25-.87.85-.87 2.063s.89 2.388 1.014 2.563c.125.162 1.756 2.662 4.25 3.737.595.25 1.058.4 1.42.525.595.188 1.138.162 1.567.1.479-.075 1.472-.6 1.68-1.188.212-.587.212-1.075.15-1.187-.066-.117-.22-.173-.335-.225a1.854 1.854 0 0 0-.13-.052z"/><path d="M17.087 2.906l.013-.031C15.2 1.038 12.7 0 10.037 0 4.552 0 .088 4.445.085 9.91c0 1.746.457 3.45 1.329 4.955L0 20l5.279-1.378a10.021 10.021 0 0 0 4.758 1.207h.005c5.488 0 9.955-4.447 9.958-9.913a9.834 9.834 0 0 0-2.913-7.01zm-7.03 15.22l-.007-.001h-.013c-1.475 0-2.937-.4-4.212-1.15l-.3-.179-3.125.813.837-3.038-.2-.312a8.218 8.218 0 0 1-1.262-4.383c0-4.537 3.712-8.237 8.285-8.237 2.213 0 4.287.862 5.85 2.425a8.159 8.159 0 0 1 2.425 5.825c-.004 4.537-3.716 8.237-8.279 8.237z"/></g></svg>